<mxfile host="app.diagrams.net" agent="Mozilla/5.0 (Windows NT 10.0; Win64; x64) AppleWebKit/537.36 (KHTML, like Gecko) Chrome/135.0.0.0 Safari/537.36" version="26.2.9">
  <diagram name="PÃ¡gina-1" id="7dEKpSyreFqI_kGDQ01I">
    <mxGraphModel dx="1853" dy="428" grid="1" gridSize="10" guides="1" tooltips="1" connect="1" arrows="1" fold="1" page="1" pageScale="1" pageWidth="827" pageHeight="1169" math="0" shadow="0">
      <root>
        <mxCell id="0" />
        <mxCell id="1" parent="0" />
        <mxCell id="29PF1dMVaMMMNcsqQgbe-9" value="&lt;div&gt;&lt;span style=&quot;font-weight: normal;&quot;&gt;&lt;i&gt;Empleado&lt;/i&gt;&lt;/span&gt;&lt;/div&gt;" style="swimlane;fontStyle=1;align=center;verticalAlign=top;childLayout=stackLayout;horizontal=1;startSize=31;horizontalStack=0;resizeParent=1;resizeParentMax=0;resizeLast=0;collapsible=1;marginBottom=0;whiteSpace=wrap;html=1;" vertex="1" parent="1">
          <mxGeometry x="289" y="20" width="250" height="250" as="geometry" />
        </mxCell>
        <mxCell id="29PF1dMVaMMMNcsqQgbe-10" value="- casado: boolean" style="text;strokeColor=none;fillColor=none;align=left;verticalAlign=top;spacingLeft=4;spacingRight=4;overflow=hidden;rotatable=0;points=[[0,0.5],[1,0.5]];portConstraint=eastwest;whiteSpace=wrap;html=1;" vertex="1" parent="29PF1dMVaMMMNcsqQgbe-9">
          <mxGeometry y="31" width="250" height="26" as="geometry" />
        </mxCell>
        <mxCell id="29PF1dMVaMMMNcsqQgbe-17" value="- cantidadHijos: Integer" style="text;strokeColor=none;fillColor=none;align=left;verticalAlign=top;spacingLeft=4;spacingRight=4;overflow=hidden;rotatable=0;points=[[0,0.5],[1,0.5]];portConstraint=eastwest;whiteSpace=wrap;html=1;" vertex="1" parent="29PF1dMVaMMMNcsqQgbe-9">
          <mxGeometry y="57" width="250" height="26" as="geometry" />
        </mxCell>
        <mxCell id="29PF1dMVaMMMNcsqQgbe-11" value="" style="line;strokeWidth=1;fillColor=none;align=left;verticalAlign=middle;spacingTop=-1;spacingLeft=3;spacingRight=3;rotatable=0;labelPosition=right;points=[];portConstraint=eastwest;strokeColor=inherit;" vertex="1" parent="29PF1dMVaMMMNcsqQgbe-9">
          <mxGeometry y="83" width="250" height="8" as="geometry" />
        </mxCell>
        <mxCell id="29PF1dMVaMMMNcsqQgbe-12" value="+ &amp;lt;&amp;lt;create&amp;gt;&amp;gt; Empleado(boolean casado, Integer cantidadHijos): Empleado" style="text;strokeColor=none;fillColor=none;align=left;verticalAlign=top;spacingLeft=4;spacingRight=4;overflow=hidden;rotatable=0;points=[[0,0.5],[1,0.5]];portConstraint=eastwest;html=1;whiteSpace=wrap;" vertex="1" parent="29PF1dMVaMMMNcsqQgbe-9">
          <mxGeometry y="91" width="250" height="39" as="geometry" />
        </mxCell>
        <mxCell id="29PF1dMVaMMMNcsqQgbe-18" value="+ descuento(): Double" style="text;strokeColor=none;fillColor=none;align=left;verticalAlign=top;spacingLeft=4;spacingRight=4;overflow=hidden;rotatable=0;points=[[0,0.5],[1,0.5]];portConstraint=eastwest;html=1;whiteSpace=wrap;" vertex="1" parent="29PF1dMVaMMMNcsqQgbe-9">
          <mxGeometry y="130" width="250" height="30" as="geometry" />
        </mxCell>
        <mxCell id="29PF1dMVaMMMNcsqQgbe-21" value="+ sueldo(): Double //template method" style="text;strokeColor=none;fillColor=none;align=left;verticalAlign=top;spacingLeft=4;spacingRight=4;overflow=hidden;rotatable=0;points=[[0,0.5],[1,0.5]];portConstraint=eastwest;html=1;whiteSpace=wrap;" vertex="1" parent="29PF1dMVaMMMNcsqQgbe-9">
          <mxGeometry y="160" width="250" height="30" as="geometry" />
        </mxCell>
        <mxCell id="29PF1dMVaMMMNcsqQgbe-20" value="+ &lt;i&gt;basico(): Double&lt;/i&gt;" style="text;strokeColor=none;fillColor=none;align=left;verticalAlign=top;spacingLeft=4;spacingRight=4;overflow=hidden;rotatable=0;points=[[0,0.5],[1,0.5]];portConstraint=eastwest;html=1;whiteSpace=wrap;" vertex="1" parent="29PF1dMVaMMMNcsqQgbe-9">
          <mxGeometry y="190" width="250" height="30" as="geometry" />
        </mxCell>
        <mxCell id="29PF1dMVaMMMNcsqQgbe-19" value="+ &lt;i&gt;adicional(): Double&lt;/i&gt;" style="text;strokeColor=none;fillColor=none;align=left;verticalAlign=top;spacingLeft=4;spacingRight=4;overflow=hidden;rotatable=0;points=[[0,0.5],[1,0.5]];portConstraint=eastwest;html=1;whiteSpace=wrap;" vertex="1" parent="29PF1dMVaMMMNcsqQgbe-9">
          <mxGeometry y="220" width="250" height="30" as="geometry" />
        </mxCell>
        <mxCell id="29PF1dMVaMMMNcsqQgbe-22" value="&lt;div&gt;&lt;span style=&quot;font-weight: normal;&quot;&gt;Temporario&lt;/span&gt;&lt;/div&gt;" style="swimlane;fontStyle=1;align=center;verticalAlign=top;childLayout=stackLayout;horizontal=1;startSize=31;horizontalStack=0;resizeParent=1;resizeParentMax=0;resizeLast=0;collapsible=1;marginBottom=0;whiteSpace=wrap;html=1;" vertex="1" parent="1">
          <mxGeometry x="-70" y="320" width="290" height="164" as="geometry" />
        </mxCell>
        <mxCell id="29PF1dMVaMMMNcsqQgbe-24" value="- horasTrabajo: Integer" style="text;strokeColor=none;fillColor=none;align=left;verticalAlign=top;spacingLeft=4;spacingRight=4;overflow=hidden;rotatable=0;points=[[0,0.5],[1,0.5]];portConstraint=eastwest;whiteSpace=wrap;html=1;" vertex="1" parent="29PF1dMVaMMMNcsqQgbe-22">
          <mxGeometry y="31" width="290" height="26" as="geometry" />
        </mxCell>
        <mxCell id="29PF1dMVaMMMNcsqQgbe-25" value="" style="line;strokeWidth=1;fillColor=none;align=left;verticalAlign=middle;spacingTop=-1;spacingLeft=3;spacingRight=3;rotatable=0;labelPosition=right;points=[];portConstraint=eastwest;strokeColor=inherit;" vertex="1" parent="29PF1dMVaMMMNcsqQgbe-22">
          <mxGeometry y="57" width="290" height="8" as="geometry" />
        </mxCell>
        <mxCell id="29PF1dMVaMMMNcsqQgbe-26" value="+ &amp;lt;&amp;lt;create&amp;gt;&amp;gt; Temporario (boolean casado, Integer cantidadHijos, Integer horasTrabajo): Temporario" style="text;strokeColor=none;fillColor=none;align=left;verticalAlign=top;spacingLeft=4;spacingRight=4;overflow=hidden;rotatable=0;points=[[0,0.5],[1,0.5]];portConstraint=eastwest;html=1;whiteSpace=wrap;" vertex="1" parent="29PF1dMVaMMMNcsqQgbe-22">
          <mxGeometry y="65" width="290" height="39" as="geometry" />
        </mxCell>
        <mxCell id="29PF1dMVaMMMNcsqQgbe-29" value="+ &lt;span&gt;basico(): Double&lt;/span&gt;" style="text;strokeColor=none;fillColor=none;align=left;verticalAlign=top;spacingLeft=4;spacingRight=4;overflow=hidden;rotatable=0;points=[[0,0.5],[1,0.5]];portConstraint=eastwest;html=1;whiteSpace=wrap;fontStyle=0" vertex="1" parent="29PF1dMVaMMMNcsqQgbe-22">
          <mxGeometry y="104" width="290" height="30" as="geometry" />
        </mxCell>
        <mxCell id="29PF1dMVaMMMNcsqQgbe-30" value="+ &lt;span&gt;adicional(): Double&lt;/span&gt;" style="text;strokeColor=none;fillColor=none;align=left;verticalAlign=top;spacingLeft=4;spacingRight=4;overflow=hidden;rotatable=0;points=[[0,0.5],[1,0.5]];portConstraint=eastwest;html=1;whiteSpace=wrap;fontStyle=0" vertex="1" parent="29PF1dMVaMMMNcsqQgbe-22">
          <mxGeometry y="134" width="290" height="30" as="geometry" />
        </mxCell>
        <mxCell id="29PF1dMVaMMMNcsqQgbe-31" value="&lt;div&gt;&lt;span style=&quot;font-weight: normal;&quot;&gt;Pasante&lt;/span&gt;&lt;/div&gt;" style="swimlane;fontStyle=1;align=center;verticalAlign=top;childLayout=stackLayout;horizontal=1;startSize=31;horizontalStack=0;resizeParent=1;resizeParentMax=0;resizeLast=0;collapsible=1;marginBottom=0;whiteSpace=wrap;html=1;" vertex="1" parent="1">
          <mxGeometry x="569" y="310" width="310" height="164" as="geometry" />
        </mxCell>
        <mxCell id="29PF1dMVaMMMNcsqQgbe-32" value="- examenesRendidos: Integer" style="text;strokeColor=none;fillColor=none;align=left;verticalAlign=top;spacingLeft=4;spacingRight=4;overflow=hidden;rotatable=0;points=[[0,0.5],[1,0.5]];portConstraint=eastwest;whiteSpace=wrap;html=1;" vertex="1" parent="29PF1dMVaMMMNcsqQgbe-31">
          <mxGeometry y="31" width="310" height="26" as="geometry" />
        </mxCell>
        <mxCell id="29PF1dMVaMMMNcsqQgbe-33" value="" style="line;strokeWidth=1;fillColor=none;align=left;verticalAlign=middle;spacingTop=-1;spacingLeft=3;spacingRight=3;rotatable=0;labelPosition=right;points=[];portConstraint=eastwest;strokeColor=inherit;" vertex="1" parent="29PF1dMVaMMMNcsqQgbe-31">
          <mxGeometry y="57" width="310" height="8" as="geometry" />
        </mxCell>
        <mxCell id="29PF1dMVaMMMNcsqQgbe-34" value="+ &amp;lt;&amp;lt;create&amp;gt;&amp;gt; Pasante(boolean casado, Integer cantidadHijos, Integer examenesRendidos): Pasante" style="text;strokeColor=none;fillColor=none;align=left;verticalAlign=top;spacingLeft=4;spacingRight=4;overflow=hidden;rotatable=0;points=[[0,0.5],[1,0.5]];portConstraint=eastwest;html=1;whiteSpace=wrap;" vertex="1" parent="29PF1dMVaMMMNcsqQgbe-31">
          <mxGeometry y="65" width="310" height="39" as="geometry" />
        </mxCell>
        <mxCell id="29PF1dMVaMMMNcsqQgbe-35" value="+ &lt;span&gt;basico(): Double&lt;/span&gt;" style="text;strokeColor=none;fillColor=none;align=left;verticalAlign=top;spacingLeft=4;spacingRight=4;overflow=hidden;rotatable=0;points=[[0,0.5],[1,0.5]];portConstraint=eastwest;html=1;whiteSpace=wrap;fontStyle=0" vertex="1" parent="29PF1dMVaMMMNcsqQgbe-31">
          <mxGeometry y="104" width="310" height="30" as="geometry" />
        </mxCell>
        <mxCell id="29PF1dMVaMMMNcsqQgbe-36" value="+ &lt;span&gt;adicional(): Double&lt;/span&gt;" style="text;strokeColor=none;fillColor=none;align=left;verticalAlign=top;spacingLeft=4;spacingRight=4;overflow=hidden;rotatable=0;points=[[0,0.5],[1,0.5]];portConstraint=eastwest;html=1;whiteSpace=wrap;fontStyle=0" vertex="1" parent="29PF1dMVaMMMNcsqQgbe-31">
          <mxGeometry y="134" width="310" height="30" as="geometry" />
        </mxCell>
        <mxCell id="29PF1dMVaMMMNcsqQgbe-37" value="&lt;div&gt;&lt;span style=&quot;font-weight: normal;&quot;&gt;Planta&lt;/span&gt;&lt;/div&gt;" style="swimlane;fontStyle=1;align=center;verticalAlign=top;childLayout=stackLayout;horizontal=1;startSize=31;horizontalStack=0;resizeParent=1;resizeParentMax=0;resizeLast=0;collapsible=1;marginBottom=0;whiteSpace=wrap;html=1;" vertex="1" parent="1">
          <mxGeometry x="259" y="503" width="310" height="164" as="geometry" />
        </mxCell>
        <mxCell id="29PF1dMVaMMMNcsqQgbe-38" value="- antiguedad: Integer" style="text;strokeColor=none;fillColor=none;align=left;verticalAlign=top;spacingLeft=4;spacingRight=4;overflow=hidden;rotatable=0;points=[[0,0.5],[1,0.5]];portConstraint=eastwest;whiteSpace=wrap;html=1;" vertex="1" parent="29PF1dMVaMMMNcsqQgbe-37">
          <mxGeometry y="31" width="310" height="26" as="geometry" />
        </mxCell>
        <mxCell id="29PF1dMVaMMMNcsqQgbe-39" value="" style="line;strokeWidth=1;fillColor=none;align=left;verticalAlign=middle;spacingTop=-1;spacingLeft=3;spacingRight=3;rotatable=0;labelPosition=right;points=[];portConstraint=eastwest;strokeColor=inherit;" vertex="1" parent="29PF1dMVaMMMNcsqQgbe-37">
          <mxGeometry y="57" width="310" height="8" as="geometry" />
        </mxCell>
        <mxCell id="29PF1dMVaMMMNcsqQgbe-40" value="+ &amp;lt;&amp;lt;create&amp;gt;&amp;gt;&amp;nbsp;&lt;span style=&quot;text-align: center;&quot;&gt;Planta&lt;/span&gt;(boolean casado, Integer cantidadHijos, Integer antiguedad):&amp;nbsp;&lt;span style=&quot;text-align: center;&quot;&gt;Planta&lt;/span&gt;" style="text;strokeColor=none;fillColor=none;align=left;verticalAlign=top;spacingLeft=4;spacingRight=4;overflow=hidden;rotatable=0;points=[[0,0.5],[1,0.5]];portConstraint=eastwest;html=1;whiteSpace=wrap;" vertex="1" parent="29PF1dMVaMMMNcsqQgbe-37">
          <mxGeometry y="65" width="310" height="39" as="geometry" />
        </mxCell>
        <mxCell id="29PF1dMVaMMMNcsqQgbe-41" value="+ &lt;span&gt;basico(): Double&lt;/span&gt;" style="text;strokeColor=none;fillColor=none;align=left;verticalAlign=top;spacingLeft=4;spacingRight=4;overflow=hidden;rotatable=0;points=[[0,0.5],[1,0.5]];portConstraint=eastwest;html=1;whiteSpace=wrap;fontStyle=0" vertex="1" parent="29PF1dMVaMMMNcsqQgbe-37">
          <mxGeometry y="104" width="310" height="30" as="geometry" />
        </mxCell>
        <mxCell id="29PF1dMVaMMMNcsqQgbe-42" value="+ &lt;span&gt;adicional(): Double&lt;/span&gt;" style="text;strokeColor=none;fillColor=none;align=left;verticalAlign=top;spacingLeft=4;spacingRight=4;overflow=hidden;rotatable=0;points=[[0,0.5],[1,0.5]];portConstraint=eastwest;html=1;whiteSpace=wrap;fontStyle=0" vertex="1" parent="29PF1dMVaMMMNcsqQgbe-37">
          <mxGeometry y="134" width="310" height="30" as="geometry" />
        </mxCell>
        <mxCell id="29PF1dMVaMMMNcsqQgbe-43" value="" style="endArrow=block;endSize=16;endFill=0;html=1;rounded=0;" edge="1" parent="1" source="29PF1dMVaMMMNcsqQgbe-22" target="29PF1dMVaMMMNcsqQgbe-9">
          <mxGeometry x="0.25" y="-70" width="160" relative="1" as="geometry">
            <mxPoint x="75" y="200" as="sourcePoint" />
            <mxPoint x="235" y="200" as="targetPoint" />
            <mxPoint as="offset" />
          </mxGeometry>
        </mxCell>
        <mxCell id="29PF1dMVaMMMNcsqQgbe-44" value="" style="endArrow=block;endSize=16;endFill=0;html=1;rounded=0;" edge="1" parent="1" source="29PF1dMVaMMMNcsqQgbe-37" target="29PF1dMVaMMMNcsqQgbe-9">
          <mxGeometry x="0.25" y="-70" width="160" relative="1" as="geometry">
            <mxPoint x="620" y="490" as="sourcePoint" />
            <mxPoint x="780" y="490" as="targetPoint" />
            <mxPoint as="offset" />
          </mxGeometry>
        </mxCell>
        <mxCell id="29PF1dMVaMMMNcsqQgbe-45" value="" style="endArrow=block;endSize=16;endFill=0;html=1;rounded=0;" edge="1" parent="1" source="29PF1dMVaMMMNcsqQgbe-31" target="29PF1dMVaMMMNcsqQgbe-9">
          <mxGeometry x="0.25" y="-70" width="160" relative="1" as="geometry">
            <mxPoint x="620" y="490" as="sourcePoint" />
            <mxPoint x="780" y="490" as="targetPoint" />
            <mxPoint as="offset" />
          </mxGeometry>
        </mxCell>
      </root>
    </mxGraphModel>
  </diagram>
</mxfile>
